<?xml version="1.0" encoding="utf-8"?>
<!-- Generator: Adobe Illustrator 17.0.2, SVG Export Plug-In . SVG Version: 6.00 Build 0)  -->
<!DOCTYPE svg PUBLIC "-//W3C//DTD SVG 1.1//EN" "http://www.w3.org/Graphics/SVG/1.1/DTD/svg11.dtd">
<svg version="1.1" id="Layer_1" xmlns="http://www.w3.org/2000/svg" xmlns:xlink="http://www.w3.org/1999/xlink" x="0px" y="0px"
	 width="288px" height="288px" viewBox="0 0 288 288" enable-background="new 0 0 288 288" xml:space="preserve">
<g>
	<circle fill="#E92C2F" cx="144.305" cy="144.726" r="110.867"/>
</g>
<g>
	<g>
		<polygon fill="#FFFFFF" points="116.995,192.207 116.995,95.128 181.486,95.128 181.486,113.786 139.159,113.786 139.159,136.157 
			169.281,136.157 169.281,153.906 139.159,153.906 139.159,192.207 		"/>
		<path fill="#D3292A" d="M180.986,95.628v17.658h-42.327v23.371h30.122v16.749h-30.122v38.302h-21.164v-96.08H180.986
			 M181.986,94.628h-1h-63.491h-1v1v96.08v1h1h21.164h1v-1v-37.302h29.122h1v-1v-16.749v-1h-1h-29.122v-21.371h41.327h1v-1V95.628
			V94.628L181.986,94.628z"/>
	</g>
</g>
</svg>
